<?xml version="1.0" encoding="utf-8"?>
<!DOCTYPE svg PUBLIC "-//W3C//DTD SVG 1.1//EN" "http://www.w3.org/Graphics/SVG/1.1/DTD/svg11.dtd">
<svg version="1.1" baseProfile="full" width="148" height="148" viewBox="0 0 148 148" xmlns="http://www.w3.org/2000/svg" xmlns:xlink="http://www.w3.org/1999/xlink" xmlns:ev="http://www.w3.org/2001/xml-events">
<rect x="0" y="0" width="148" height="148" fill="rgb(247,248,247)" fill-opacity="1.00" />
<defs><rect id="p" width="4" height="4" /></defs>
<g fill="rgb(0,59,106)" fill-opacity="1.00">
<use x="16" y="16" xlink:href="#p" />
<use x="20" y="16" xlink:href="#p" />
<use x="24" y="16" xlink:href="#p" />
<use x="28" y="16" xlink:href="#p" />
<use x="32" y="16" xlink:href="#p" />
<use x="36" y="16" xlink:href="#p" />
<use x="40" y="16" xlink:href="#p" />
<use x="60" y="16" xlink:href="#p" />
<use x="72" y="16" xlink:href="#p" />
<use x="80" y="16" xlink:href="#p" />
<use x="92" y="16" xlink:href="#p" />
<use x="104" y="16" xlink:href="#p" />
<use x="108" y="16" xlink:href="#p" />
<use x="112" y="16" xlink:href="#p" />
<use x="116" y="16" xlink:href="#p" />
<use x="120" y="16" xlink:href="#p" />
<use x="124" y="16" xlink:href="#p" />
<use x="128" y="16" xlink:href="#p" />
<use x="16" y="20" xlink:href="#p" />
<use x="40" y="20" xlink:href="#p" />
<use x="48" y="20" xlink:href="#p" />
<use x="52" y="20" xlink:href="#p" />
<use x="64" y="20" xlink:href="#p" />
<use x="68" y="20" xlink:href="#p" />
<use x="72" y="20" xlink:href="#p" />
<use x="84" y="20" xlink:href="#p" />
<use x="88" y="20" xlink:href="#p" />
<use x="92" y="20" xlink:href="#p" />
<use x="104" y="20" xlink:href="#p" />
<use x="128" y="20" xlink:href="#p" />
<use x="16" y="24" xlink:href="#p" />
<use x="24" y="24" xlink:href="#p" />
<use x="28" y="24" xlink:href="#p" />
<use x="32" y="24" xlink:href="#p" />
<use x="40" y="24" xlink:href="#p" />
<use x="56" y="24" xlink:href="#p" />
<use x="64" y="24" xlink:href="#p" />
<use x="72" y="24" xlink:href="#p" />
<use x="76" y="24" xlink:href="#p" />
<use x="88" y="24" xlink:href="#p" />
<use x="92" y="24" xlink:href="#p" />
<use x="96" y="24" xlink:href="#p" />
<use x="104" y="24" xlink:href="#p" />
<use x="112" y="24" xlink:href="#p" />
<use x="116" y="24" xlink:href="#p" />
<use x="120" y="24" xlink:href="#p" />
<use x="128" y="24" xlink:href="#p" />
<use x="16" y="28" xlink:href="#p" />
<use x="24" y="28" xlink:href="#p" />
<use x="28" y="28" xlink:href="#p" />
<use x="32" y="28" xlink:href="#p" />
<use x="40" y="28" xlink:href="#p" />
<use x="52" y="28" xlink:href="#p" />
<use x="56" y="28" xlink:href="#p" />
<use x="60" y="28" xlink:href="#p" />
<use x="88" y="28" xlink:href="#p" />
<use x="104" y="28" xlink:href="#p" />
<use x="112" y="28" xlink:href="#p" />
<use x="116" y="28" xlink:href="#p" />
<use x="120" y="28" xlink:href="#p" />
<use x="128" y="28" xlink:href="#p" />
<use x="16" y="32" xlink:href="#p" />
<use x="24" y="32" xlink:href="#p" />
<use x="28" y="32" xlink:href="#p" />
<use x="32" y="32" xlink:href="#p" />
<use x="40" y="32" xlink:href="#p" />
<use x="48" y="32" xlink:href="#p" />
<use x="52" y="32" xlink:href="#p" />
<use x="68" y="32" xlink:href="#p" />
<use x="76" y="32" xlink:href="#p" />
<use x="80" y="32" xlink:href="#p" />
<use x="84" y="32" xlink:href="#p" />
<use x="88" y="32" xlink:href="#p" />
<use x="104" y="32" xlink:href="#p" />
<use x="112" y="32" xlink:href="#p" />
<use x="116" y="32" xlink:href="#p" />
<use x="120" y="32" xlink:href="#p" />
<use x="128" y="32" xlink:href="#p" />
<use x="16" y="36" xlink:href="#p" />
<use x="40" y="36" xlink:href="#p" />
<use x="52" y="36" xlink:href="#p" />
<use x="56" y="36" xlink:href="#p" />
<use x="68" y="36" xlink:href="#p" />
<use x="76" y="36" xlink:href="#p" />
<use x="104" y="36" xlink:href="#p" />
<use x="128" y="36" xlink:href="#p" />
<use x="16" y="40" xlink:href="#p" />
<use x="20" y="40" xlink:href="#p" />
<use x="24" y="40" xlink:href="#p" />
<use x="28" y="40" xlink:href="#p" />
<use x="32" y="40" xlink:href="#p" />
<use x="36" y="40" xlink:href="#p" />
<use x="40" y="40" xlink:href="#p" />
<use x="48" y="40" xlink:href="#p" />
<use x="56" y="40" xlink:href="#p" />
<use x="64" y="40" xlink:href="#p" />
<use x="72" y="40" xlink:href="#p" />
<use x="80" y="40" xlink:href="#p" />
<use x="88" y="40" xlink:href="#p" />
<use x="96" y="40" xlink:href="#p" />
<use x="104" y="40" xlink:href="#p" />
<use x="108" y="40" xlink:href="#p" />
<use x="112" y="40" xlink:href="#p" />
<use x="116" y="40" xlink:href="#p" />
<use x="120" y="40" xlink:href="#p" />
<use x="124" y="40" xlink:href="#p" />
<use x="128" y="40" xlink:href="#p" />
<use x="56" y="44" xlink:href="#p" />
<use x="60" y="44" xlink:href="#p" />
<use x="64" y="44" xlink:href="#p" />
<use x="88" y="44" xlink:href="#p" />
<use x="16" y="48" xlink:href="#p" />
<use x="24" y="48" xlink:href="#p" />
<use x="32" y="48" xlink:href="#p" />
<use x="40" y="48" xlink:href="#p" />
<use x="64" y="48" xlink:href="#p" />
<use x="68" y="48" xlink:href="#p" />
<use x="72" y="48" xlink:href="#p" />
<use x="80" y="48" xlink:href="#p" />
<use x="112" y="48" xlink:href="#p" />
<use x="124" y="48" xlink:href="#p" />
<use x="16" y="52" xlink:href="#p" />
<use x="24" y="52" xlink:href="#p" />
<use x="32" y="52" xlink:href="#p" />
<use x="48" y="52" xlink:href="#p" />
<use x="52" y="52" xlink:href="#p" />
<use x="60" y="52" xlink:href="#p" />
<use x="72" y="52" xlink:href="#p" />
<use x="76" y="52" xlink:href="#p" />
<use x="84" y="52" xlink:href="#p" />
<use x="88" y="52" xlink:href="#p" />
<use x="92" y="52" xlink:href="#p" />
<use x="96" y="52" xlink:href="#p" />
<use x="108" y="52" xlink:href="#p" />
<use x="112" y="52" xlink:href="#p" />
<use x="116" y="52" xlink:href="#p" />
<use x="120" y="52" xlink:href="#p" />
<use x="124" y="52" xlink:href="#p" />
<use x="20" y="56" xlink:href="#p" />
<use x="28" y="56" xlink:href="#p" />
<use x="40" y="56" xlink:href="#p" />
<use x="44" y="56" xlink:href="#p" />
<use x="56" y="56" xlink:href="#p" />
<use x="64" y="56" xlink:href="#p" />
<use x="76" y="56" xlink:href="#p" />
<use x="80" y="56" xlink:href="#p" />
<use x="92" y="56" xlink:href="#p" />
<use x="96" y="56" xlink:href="#p" />
<use x="104" y="56" xlink:href="#p" />
<use x="112" y="56" xlink:href="#p" />
<use x="128" y="56" xlink:href="#p" />
<use x="16" y="60" xlink:href="#p" />
<use x="24" y="60" xlink:href="#p" />
<use x="36" y="60" xlink:href="#p" />
<use x="56" y="60" xlink:href="#p" />
<use x="60" y="60" xlink:href="#p" />
<use x="68" y="60" xlink:href="#p" />
<use x="72" y="60" xlink:href="#p" />
<use x="88" y="60" xlink:href="#p" />
<use x="100" y="60" xlink:href="#p" />
<use x="108" y="60" xlink:href="#p" />
<use x="116" y="60" xlink:href="#p" />
<use x="124" y="60" xlink:href="#p" />
<use x="24" y="64" xlink:href="#p" />
<use x="28" y="64" xlink:href="#p" />
<use x="32" y="64" xlink:href="#p" />
<use x="40" y="64" xlink:href="#p" />
<use x="44" y="64" xlink:href="#p" />
<use x="48" y="64" xlink:href="#p" />
<use x="52" y="64" xlink:href="#p" />
<use x="60" y="64" xlink:href="#p" />
<use x="64" y="64" xlink:href="#p" />
<use x="88" y="64" xlink:href="#p" />
<use x="96" y="64" xlink:href="#p" />
<use x="104" y="64" xlink:href="#p" />
<use x="108" y="64" xlink:href="#p" />
<use x="112" y="64" xlink:href="#p" />
<use x="116" y="64" xlink:href="#p" />
<use x="124" y="64" xlink:href="#p" />
<use x="128" y="64" xlink:href="#p" />
<use x="20" y="68" xlink:href="#p" />
<use x="44" y="68" xlink:href="#p" />
<use x="48" y="68" xlink:href="#p" />
<use x="52" y="68" xlink:href="#p" />
<use x="56" y="68" xlink:href="#p" />
<use x="60" y="68" xlink:href="#p" />
<use x="64" y="68" xlink:href="#p" />
<use x="68" y="68" xlink:href="#p" />
<use x="84" y="68" xlink:href="#p" />
<use x="92" y="68" xlink:href="#p" />
<use x="100" y="68" xlink:href="#p" />
<use x="108" y="68" xlink:href="#p" />
<use x="124" y="68" xlink:href="#p" />
<use x="128" y="68" xlink:href="#p" />
<use x="16" y="72" xlink:href="#p" />
<use x="24" y="72" xlink:href="#p" />
<use x="32" y="72" xlink:href="#p" />
<use x="36" y="72" xlink:href="#p" />
<use x="40" y="72" xlink:href="#p" />
<use x="48" y="72" xlink:href="#p" />
<use x="56" y="72" xlink:href="#p" />
<use x="60" y="72" xlink:href="#p" />
<use x="68" y="72" xlink:href="#p" />
<use x="72" y="72" xlink:href="#p" />
<use x="80" y="72" xlink:href="#p" />
<use x="84" y="72" xlink:href="#p" />
<use x="104" y="72" xlink:href="#p" />
<use x="120" y="72" xlink:href="#p" />
<use x="128" y="72" xlink:href="#p" />
<use x="16" y="76" xlink:href="#p" />
<use x="24" y="76" xlink:href="#p" />
<use x="28" y="76" xlink:href="#p" />
<use x="36" y="76" xlink:href="#p" />
<use x="48" y="76" xlink:href="#p" />
<use x="52" y="76" xlink:href="#p" />
<use x="72" y="76" xlink:href="#p" />
<use x="76" y="76" xlink:href="#p" />
<use x="96" y="76" xlink:href="#p" />
<use x="100" y="76" xlink:href="#p" />
<use x="108" y="76" xlink:href="#p" />
<use x="112" y="76" xlink:href="#p" />
<use x="120" y="76" xlink:href="#p" />
<use x="128" y="76" xlink:href="#p" />
<use x="16" y="80" xlink:href="#p" />
<use x="20" y="80" xlink:href="#p" />
<use x="24" y="80" xlink:href="#p" />
<use x="28" y="80" xlink:href="#p" />
<use x="32" y="80" xlink:href="#p" />
<use x="36" y="80" xlink:href="#p" />
<use x="40" y="80" xlink:href="#p" />
<use x="44" y="80" xlink:href="#p" />
<use x="60" y="80" xlink:href="#p" />
<use x="64" y="80" xlink:href="#p" />
<use x="72" y="80" xlink:href="#p" />
<use x="80" y="80" xlink:href="#p" />
<use x="88" y="80" xlink:href="#p" />
<use x="92" y="80" xlink:href="#p" />
<use x="96" y="80" xlink:href="#p" />
<use x="104" y="80" xlink:href="#p" />
<use x="112" y="80" xlink:href="#p" />
<use x="116" y="80" xlink:href="#p" />
<use x="120" y="80" xlink:href="#p" />
<use x="128" y="80" xlink:href="#p" />
<use x="20" y="84" xlink:href="#p" />
<use x="28" y="84" xlink:href="#p" />
<use x="36" y="84" xlink:href="#p" />
<use x="44" y="84" xlink:href="#p" />
<use x="52" y="84" xlink:href="#p" />
<use x="64" y="84" xlink:href="#p" />
<use x="68" y="84" xlink:href="#p" />
<use x="76" y="84" xlink:href="#p" />
<use x="88" y="84" xlink:href="#p" />
<use x="96" y="84" xlink:href="#p" />
<use x="100" y="84" xlink:href="#p" />
<use x="116" y="84" xlink:href="#p" />
<use x="124" y="84" xlink:href="#p" />
<use x="16" y="88" xlink:href="#p" />
<use x="28" y="88" xlink:href="#p" />
<use x="36" y="88" xlink:href="#p" />
<use x="40" y="88" xlink:href="#p" />
<use x="48" y="88" xlink:href="#p" />
<use x="72" y="88" xlink:href="#p" />
<use x="80" y="88" xlink:href="#p" />
<use x="96" y="88" xlink:href="#p" />
<use x="104" y="88" xlink:href="#p" />
<use x="112" y="88" xlink:href="#p" />
<use x="128" y="88" xlink:href="#p" />
<use x="20" y="92" xlink:href="#p" />
<use x="28" y="92" xlink:href="#p" />
<use x="36" y="92" xlink:href="#p" />
<use x="48" y="92" xlink:href="#p" />
<use x="52" y="92" xlink:href="#p" />
<use x="56" y="92" xlink:href="#p" />
<use x="60" y="92" xlink:href="#p" />
<use x="72" y="92" xlink:href="#p" />
<use x="92" y="92" xlink:href="#p" />
<use x="100" y="92" xlink:href="#p" />
<use x="108" y="92" xlink:href="#p" />
<use x="124" y="92" xlink:href="#p" />
<use x="16" y="96" xlink:href="#p" />
<use x="24" y="96" xlink:href="#p" />
<use x="40" y="96" xlink:href="#p" />
<use x="60" y="96" xlink:href="#p" />
<use x="64" y="96" xlink:href="#p" />
<use x="72" y="96" xlink:href="#p" />
<use x="88" y="96" xlink:href="#p" />
<use x="92" y="96" xlink:href="#p" />
<use x="96" y="96" xlink:href="#p" />
<use x="100" y="96" xlink:href="#p" />
<use x="104" y="96" xlink:href="#p" />
<use x="108" y="96" xlink:href="#p" />
<use x="112" y="96" xlink:href="#p" />
<use x="116" y="96" xlink:href="#p" />
<use x="120" y="96" xlink:href="#p" />
<use x="128" y="96" xlink:href="#p" />
<use x="48" y="100" xlink:href="#p" />
<use x="52" y="100" xlink:href="#p" />
<use x="68" y="100" xlink:href="#p" />
<use x="80" y="100" xlink:href="#p" />
<use x="92" y="100" xlink:href="#p" />
<use x="96" y="100" xlink:href="#p" />
<use x="112" y="100" xlink:href="#p" />
<use x="116" y="100" xlink:href="#p" />
<use x="120" y="100" xlink:href="#p" />
<use x="124" y="100" xlink:href="#p" />
<use x="16" y="104" xlink:href="#p" />
<use x="20" y="104" xlink:href="#p" />
<use x="24" y="104" xlink:href="#p" />
<use x="28" y="104" xlink:href="#p" />
<use x="32" y="104" xlink:href="#p" />
<use x="36" y="104" xlink:href="#p" />
<use x="40" y="104" xlink:href="#p" />
<use x="60" y="104" xlink:href="#p" />
<use x="72" y="104" xlink:href="#p" />
<use x="80" y="104" xlink:href="#p" />
<use x="88" y="104" xlink:href="#p" />
<use x="92" y="104" xlink:href="#p" />
<use x="96" y="104" xlink:href="#p" />
<use x="104" y="104" xlink:href="#p" />
<use x="112" y="104" xlink:href="#p" />
<use x="128" y="104" xlink:href="#p" />
<use x="16" y="108" xlink:href="#p" />
<use x="40" y="108" xlink:href="#p" />
<use x="64" y="108" xlink:href="#p" />
<use x="68" y="108" xlink:href="#p" />
<use x="76" y="108" xlink:href="#p" />
<use x="92" y="108" xlink:href="#p" />
<use x="96" y="108" xlink:href="#p" />
<use x="112" y="108" xlink:href="#p" />
<use x="120" y="108" xlink:href="#p" />
<use x="16" y="112" xlink:href="#p" />
<use x="24" y="112" xlink:href="#p" />
<use x="28" y="112" xlink:href="#p" />
<use x="32" y="112" xlink:href="#p" />
<use x="40" y="112" xlink:href="#p" />
<use x="48" y="112" xlink:href="#p" />
<use x="52" y="112" xlink:href="#p" />
<use x="60" y="112" xlink:href="#p" />
<use x="72" y="112" xlink:href="#p" />
<use x="76" y="112" xlink:href="#p" />
<use x="80" y="112" xlink:href="#p" />
<use x="88" y="112" xlink:href="#p" />
<use x="96" y="112" xlink:href="#p" />
<use x="100" y="112" xlink:href="#p" />
<use x="104" y="112" xlink:href="#p" />
<use x="108" y="112" xlink:href="#p" />
<use x="112" y="112" xlink:href="#p" />
<use x="116" y="112" xlink:href="#p" />
<use x="124" y="112" xlink:href="#p" />
<use x="128" y="112" xlink:href="#p" />
<use x="16" y="116" xlink:href="#p" />
<use x="24" y="116" xlink:href="#p" />
<use x="28" y="116" xlink:href="#p" />
<use x="32" y="116" xlink:href="#p" />
<use x="40" y="116" xlink:href="#p" />
<use x="52" y="116" xlink:href="#p" />
<use x="60" y="116" xlink:href="#p" />
<use x="64" y="116" xlink:href="#p" />
<use x="84" y="116" xlink:href="#p" />
<use x="92" y="116" xlink:href="#p" />
<use x="100" y="116" xlink:href="#p" />
<use x="108" y="116" xlink:href="#p" />
<use x="116" y="116" xlink:href="#p" />
<use x="124" y="116" xlink:href="#p" />
<use x="16" y="120" xlink:href="#p" />
<use x="24" y="120" xlink:href="#p" />
<use x="28" y="120" xlink:href="#p" />
<use x="32" y="120" xlink:href="#p" />
<use x="40" y="120" xlink:href="#p" />
<use x="48" y="120" xlink:href="#p" />
<use x="52" y="120" xlink:href="#p" />
<use x="56" y="120" xlink:href="#p" />
<use x="60" y="120" xlink:href="#p" />
<use x="72" y="120" xlink:href="#p" />
<use x="76" y="120" xlink:href="#p" />
<use x="80" y="120" xlink:href="#p" />
<use x="84" y="120" xlink:href="#p" />
<use x="88" y="120" xlink:href="#p" />
<use x="96" y="120" xlink:href="#p" />
<use x="112" y="120" xlink:href="#p" />
<use x="120" y="120" xlink:href="#p" />
<use x="128" y="120" xlink:href="#p" />
<use x="16" y="124" xlink:href="#p" />
<use x="40" y="124" xlink:href="#p" />
<use x="52" y="124" xlink:href="#p" />
<use x="56" y="124" xlink:href="#p" />
<use x="64" y="124" xlink:href="#p" />
<use x="68" y="124" xlink:href="#p" />
<use x="76" y="124" xlink:href="#p" />
<use x="80" y="124" xlink:href="#p" />
<use x="84" y="124" xlink:href="#p" />
<use x="100" y="124" xlink:href="#p" />
<use x="104" y="124" xlink:href="#p" />
<use x="116" y="124" xlink:href="#p" />
<use x="120" y="124" xlink:href="#p" />
<use x="16" y="128" xlink:href="#p" />
<use x="20" y="128" xlink:href="#p" />
<use x="24" y="128" xlink:href="#p" />
<use x="28" y="128" xlink:href="#p" />
<use x="32" y="128" xlink:href="#p" />
<use x="36" y="128" xlink:href="#p" />
<use x="40" y="128" xlink:href="#p" />
<use x="48" y="128" xlink:href="#p" />
<use x="52" y="128" xlink:href="#p" />
<use x="68" y="128" xlink:href="#p" />
<use x="84" y="128" xlink:href="#p" />
<use x="88" y="128" xlink:href="#p" />
<use x="92" y="128" xlink:href="#p" />
<use x="96" y="128" xlink:href="#p" />
<use x="112" y="128" xlink:href="#p" />
<use x="120" y="128" xlink:href="#p" />
<use x="128" y="128" xlink:href="#p" />
</g>
</svg>